<?xml version="1.0" encoding="UTF-8"?>
<svg id="Layer_2" data-name="Layer 2" xmlns="http://www.w3.org/2000/svg" viewBox="0 0 18.34 19.93">
  <defs>
    <style>
      .cls-1 {
        fill: #e3c16f;
      }
    </style>
  </defs>
  <g id="Layer_1-2" data-name="Layer 1">
    <g>
      <g>
        <path class="cls-1" d="m3.87,13.34c0-.87.7-1.58,1.57-1.58s1.57.67,1.57,1.58-.71,1.6-1.57,1.6-1.57-.67-1.57-1.6Zm2.54-.49c-.29-.65-.95-1.01-1.5-.83-.56.2-.75.99-.44,1.79.26.67.91,1.05,1.48.85.61-.22.81-1.02.46-1.82Z"/>
        <path class="cls-1" d="m7.67,14.21v-.54c0-.28-.09-.53-.4-.55v-.1c.32-.1.54-.25.7-.45l.12.03c-.04.23-.04.41-.04.57.23-.6.77-.64,1.05-.53-.05.29-.05.57-.04.78l-.09.02c-.06-.32-.24-.46-.47-.46-.25,0-.45.23-.45.57v.66c0,.31.09.47.41.58l-.02.12c-.2-.02-.45-.03-.58-.03s-.34,0-.59.03l-.02-.12c.33-.11.42-.27.42-.58Z"/>
        <path class="cls-1" d="m9.34,13.74c0-.67.45-1.19,1.06-1.19.37,0,.62.13.78.34,0-.75-.11-.87-.4-.87v-.11c.42-.07.65-.22.86-.46l.08.06c-.16.41-.18.64-.18,1.49v.71c0,.64.09.9.42,1.05l-.02.12c-.2-.02-.47-.02-.71,0l-.03-.33c-.15.23-.39.38-.78.38-.61,0-1.09-.53-1.09-1.19Zm1.83-.1c-.09-.63-.44-.98-.88-.92-.31.04-.51.4-.46.96.05.56.39,1.03.85,1.01.41-.02.56-.48.48-1.05Z"/>
        <path class="cls-1" d="m12.1,13.74c0-.66.53-1.19,1.17-1.19s1.17.5,1.17,1.19-.53,1.19-1.17,1.19-1.17-.5-1.17-1.19Zm1.83-.25c-.21-.55-.67-.82-1.03-.7-.36.13-.51.65-.3,1.2.21.56.67.84,1.02.71.36-.12.52-.65.3-1.21Z"/>
        <path class="cls-1" d="m.42,18.21v-1.73c0-.31-.09-.47-.42-.58l.02-.11c.25.02.46.03.59.03s.38,0,.58-.03l.02.11c-.33.11-.42.27-.42.58v1.69c0,.36.17.54.55.54.61,0,.92-.36,1.07-1.14h.12l-.06,1.33c-.24-.02-.56-.02-1.2-.02-.79,0-1,0-1.25.03l-.02-.12c.33-.11.42-.27.42-.58Z"/>
        <path class="cls-1" d="m3.97,18.93c-.59,0-1.1-.5-1.1-1.19s.43-1.19,1.06-1.19c.52,0,1.02.29.98,1.05h-1.66c0,.21.07.43.21.6.35.47,1.14.49,1.5-.07l.07.05c-.13.43-.49.75-1.06.75Zm.48-1.5c0-.58-.48-.91-.89-.64-.17.11-.28.36-.31.63h1.19Z"/>
        <path class="cls-1" d="m5.79,18.2c-.2.16-.22.34-.11.46.12.12.51.08.94.01.63-.09.87-.14,1,.09.17.29-.12.72-.63.95-.57.25-1.26.27-1.54.14-.38-.18-.26-.6.13-.83-.03-.02-.06-.04-.09-.07-.25-.24-.13-.58.23-.8-.21-.16-.34-.4-.34-.69,0-.5.47-.91,1.05-.91h0c.54,0,.88.02,1.35-.06l.04.06-.17.26-.61-.1c.27.16.44.43.44.75,0,.51-.48.92-1.05.92-.24,0-.46-.07-.64-.18Zm-.09,1.34c.26.22.81.19,1.21.02.36-.16.5-.37.47-.5-.04-.13-.22-.12-.61-.05-.41.08-.83.16-1.12.04-.12.19-.06.4.05.49Zm1.28-2.23c-.14-.41-.49-.65-.79-.59-.32.06-.46.47-.32.88.14.41.49.66.8.6.3-.06.45-.47.32-.89Z"/>
        <path class="cls-1" d="m8.52,18.21v-.54c0-.28-.09-.53-.4-.55v-.1c.32-.1.54-.25.7-.45l.12.03c-.06.4-.04.65-.04.92v.69c0,.31.09.47.41.58l-.02.12c-.2-.02-.45-.03-.58-.03s-.34,0-.59.03l-.02-.12c.33-.11.42-.27.42-.58Zm-.16-2.31c0-.16.13-.29.29-.29s.29.13.29.29-.13.29-.29.29-.29-.13-.29-.29Z"/>
        <path class="cls-1" d="m9.49,17.74c0-.66.53-1.19,1.17-1.19s1.17.5,1.17,1.19-.53,1.19-1.17,1.19-1.17-.5-1.17-1.19Zm1.83-.25c-.21-.55-.67-.82-1.03-.7-.36.13-.51.65-.3,1.2.21.56.67.84,1.02.71.36-.12.52-.65.3-1.21Z"/>
        <path class="cls-1" d="m14.08,18.21v-.68c0-.44-.17-.66-.5-.66-.35,0-.55.24-.73.5v.84c0,.31.09.47.41.58l-.02.12c-.2-.02-.45-.03-.58-.03s-.34,0-.59.03l-.02-.12c.33-.11.42-.27.42-.58v-.54c0-.28-.09-.53-.4-.55v-.1c.32-.1.54-.25.7-.45l.12.03c-.04.24-.04.42-.04.59.23-.41.6-.64.92-.64.46,0,.69.32.69.96v.69c0,.31.09.47.42.58l-.02.12c-.2-.02-.45-.03-.58-.03s-.34,0-.55.03l-.02-.12c.29-.11.37-.27.37-.58Z"/>
        <path class="cls-1" d="m15.44,18.21v-.54c0-.28-.09-.53-.4-.55v-.1c.32-.1.54-.25.7-.45l.11.03c-.06.4-.04.65-.04.92v.69c0,.31.09.47.41.58l-.02.12c-.2-.02-.45-.03-.58-.03s-.34,0-.59.03l-.02-.12c.33-.11.42-.27.42-.58Zm-.16-2.31c0-.16.13-.29.29-.29s.29.13.29.29-.13.29-.29.29-.29-.13-.29-.29Z"/>
        <path class="cls-1" d="m17.55,18.75c.23,0,.44-.11.44-.31s-.19-.37-.64-.55c-.5-.2-.71-.41-.71-.71,0-.42.39-.61.84-.61.3,0,.41.08.73.08-.02.25-.02.47,0,.72l-.09.02c-.15-.48-.44-.65-.72-.65-.21,0-.39.1-.39.31,0,.17.2.31.58.48.58.25.76.45.76.77,0,.39-.27.62-.89.62-.3,0-.57-.02-.9-.12.04-.18.09-.55.04-.77l.08-.02c.2.56.48.76.87.76Z"/>
      </g>
      <g>
        <g>
          <path class="cls-1" d="m11.19,1.69l-2.04.83-2.04-.83c0-.25.13-.49.34-.63l.15-.1v.5c0,.07.03.12.07.17.04.04.1.07.16.07v-.48c0-.25.13-.49.34-.63l.15-.1v1.27c0,.13.1.23.24.23V.73c0-.25.13-.49.34-.63l.15-.1v2.16c0,.06.05.12.12.12s.12-.05.12-.12V0l.15.1c.21.14.34.38.34.63v1.25c.13,0,.24-.1.24-.23V.48l.15.1c.21.14.34.38.34.63v.48c.06,0,.12-.03.16-.07.04-.04.07-.1.07-.17v-.5l.15.1c.21.14.34.38.34.63Z"/>
          <path class="cls-1" d="m14.41,3.22v.64c0,.6-.18,1.2-.52,1.72v-2.12c0-.27-.24-.48-.52-.42l-.15.03c.12,0,.23.05.3.13.08.08.13.18.13.3v1.5c0,.61-.18,1.2-.51,1.72v-3.26c0-.27-.25-.48-.52-.42l-.15.03c.24,0,.43.18.43.43v2.65c0,.61-.19,1.2-.52,1.72V3.46c0-.27-.26-.48-.52-.42l-.15.03c.23,0,.43.18.43.43v3.79c0,.6-.18,1.21-.51,1.72V3.46c0-.27-.26-.48-.53-.42l-.15.03c.24,0,.43.18.43.43v4.93c0,.62-.18,1.21-.51,1.72v-5.61c0-.96-.78-1.75-1.75-1.76-.97,0-1.75.79-1.75,1.76v5.61c-.33-.51-.51-1.1-.51-1.72V3.5c0-.24.19-.43.43-.43l-.15-.03c-.27-.06-.53.15-.53.42v5.55c-.33-.51-.51-1.11-.51-1.72v-3.79c0-.24.2-.43.43-.43l-.15-.03c-.26-.06-.52.15-.52.42v4.4c-.33-.52-.52-1.11-.52-1.72v-2.65c0-.24.2-.43.43-.43l-.15-.03c-.26-.06-.52.15-.52.42v3.26c-.33-.52-.51-1.11-.51-1.72v-1.5c0-.12.05-.22.13-.3.08-.08.19-.13.3-.13l-.15-.03c-.27-.06-.52.15-.52.42v2.12c-.34-.52-.52-1.11-.52-1.72v-.64c0-.39.32-.7.7-.7h9.11c.38,0,.7.31.7.7Z"/>
        </g>
        <g>
          <path class="cls-1" d="m10.12,5.15c-.03-.12-.08-.24-.14-.35l-.19-.33c-.13-.22-.2-.47-.2-.73,0-.18-.1-.32-.25-.39l-.05-.02h0s-.09-.02-.13-.02-.09,0-.13.02h0l-.05.02c-.14.07-.25.21-.25.39,0,.26-.07.51-.2.73l-.19.33c-.06.11-.11.23-.14.35l-.53,1.97h0c.14,0,.27-.1.31-.24l.04-.15c.13.02.25.08.34.18.05.06.09.13.12.2.02.05.03.1.03.16v2.54c.1-.03.19-.05.29-.06v-3.2c0-.13.11-.24.24-.24h0v3.41s.09,0,.14,0,.1,0,.14,0v-3.41h0c.13,0,.24.11.24.24v3.2c.1.02.19.04.28.06v-2.54c0-.05.01-.11.03-.16.02-.08.06-.14.12-.2.09-.1.2-.16.34-.18l.04.15c.04.14.16.24.31.24h0l-.53-1.97Zm-.53-.55l.16.28c.06.1.1.2.13.31l.12.44c-.23,0-.41-.19-.41-.42v-.6Zm-.51-1.06s.05-.04.07-.06c.03.02.05.04.07.06.08.08.13.18.13.3,0,.14-.06.27-.15.37l-.05.05-.05-.05c-.1-.1-.15-.23-.15-.37,0-.12.05-.23.13-.3Zm-.66,1.65c.03-.11.08-.21.13-.31l.16-.28v.6c0,.23-.18.42-.41.42l.12-.44Zm1.58,1.21l-.65-.65c-.05-.05-.12-.08-.2-.08s-.15.03-.2.08l-.65.65c-.07.07-.15.11-.24.12l.24-.89.14.03c.26.06.51-.14.51-.42v-.81h.4v.81c0,.27.25.47.51.42l.14-.03.24.89c-.09-.01-.17-.05-.24-.12Z"/>
          <path class="cls-1" d="m10.9,10.79h-.71c-.3-.2-.65-.33-1.04-.33s-.74.12-1.04.33h-.71c.42-.49,1.05-.81,1.75-.81s1.33.31,1.75.81Z"/>
        </g>
      </g>
    </g>
  </g>
</svg>