<?xml version="1.0" encoding="UTF-8"?>
<svg id="Layer_2" data-name="Layer 2" xmlns="http://www.w3.org/2000/svg" viewBox="0 0 10.51 10.79">
  <defs>
    <style>
      .cls-1 {
        fill: #e3c16f;
      }
    </style>
  </defs>
  <g id="Layer_1-2" data-name="Layer 1">
    <g>
      <g>
        <path class="cls-1" d="m7.3,1.69l-2.04.83-2.04-.83c0-.25.13-.49.34-.63l.15-.1v.5c0,.07.03.12.07.17.04.04.1.07.16.07v-.48c0-.25.13-.49.34-.63l.15-.1v1.27c0,.13.1.23.24.23V.73c0-.25.13-.49.34-.63l.15-.1v2.16c0,.06.05.12.12.12s.12-.05.12-.12V0l.15.1c.21.14.34.38.34.63v1.25c.13,0,.24-.1.24-.23V.48l.15.1c.21.14.34.38.34.63v.48c.06,0,.12-.03.16-.07.04-.04.07-.1.07-.17v-.5l.15.1c.21.14.34.38.34.63Z"/>
        <path class="cls-1" d="m10.51,3.22v.64c0,.6-.18,1.2-.52,1.72v-2.12c0-.27-.24-.48-.52-.42l-.15.03c.12,0,.23.05.3.13.08.08.13.18.13.3v1.5c0,.61-.18,1.2-.51,1.72v-3.26c0-.27-.25-.48-.52-.42l-.15.03c.24,0,.43.18.43.43v2.65c0,.61-.19,1.2-.52,1.72V3.46c0-.27-.26-.48-.52-.42l-.15.03c.23,0,.43.18.43.43v3.79c0,.6-.18,1.21-.51,1.72V3.46c0-.27-.26-.48-.53-.42l-.15.03c.24,0,.43.18.43.43v4.93c0,.62-.18,1.21-.51,1.72v-5.61c0-.96-.78-1.75-1.75-1.76-.97,0-1.75.79-1.75,1.76v5.61c-.33-.51-.51-1.1-.51-1.72V3.5c0-.24.19-.43.43-.43l-.15-.03c-.27-.06-.53.15-.53.42v5.55c-.33-.51-.51-1.11-.51-1.72v-3.79c0-.24.2-.43.43-.43l-.15-.03c-.26-.06-.52.15-.52.42v4.4c-.33-.52-.52-1.11-.52-1.72v-2.65c0-.24.2-.43.43-.43l-.15-.03c-.26-.06-.52.15-.52.42v3.26c-.33-.52-.51-1.11-.51-1.72v-1.5c0-.12.05-.22.13-.3.08-.08.19-.13.3-.13l-.15-.03c-.27-.06-.52.15-.52.42v2.12c-.34-.52-.52-1.11-.52-1.72v-.64c0-.39.32-.7.7-.7h9.11c.38,0,.7.31.7.7Z"/>
      </g>
      <g>
        <path class="cls-1" d="m6.22,5.15c-.03-.12-.08-.24-.14-.35l-.19-.33c-.13-.22-.2-.47-.2-.73,0-.18-.1-.32-.25-.39l-.05-.02h0s-.09-.02-.13-.02-.09,0-.13.02h0l-.05.02c-.14.07-.25.21-.25.39,0,.26-.07.51-.2.73l-.19.33c-.06.11-.11.23-.14.35l-.53,1.97h0c.14,0,.27-.1.31-.24l.04-.15c.13.02.25.08.34.18.05.06.09.13.12.2.02.05.03.1.03.16v2.54c.1-.03.19-.05.29-.06v-3.2c0-.13.11-.24.24-.24h0v3.41s.09,0,.14,0,.1,0,.14,0v-3.41h0c.13,0,.24.11.24.24v3.2c.1.02.19.04.28.06v-2.54c0-.05.01-.11.03-.16.02-.08.06-.14.12-.2.09-.1.2-.16.34-.18l.04.15c.04.14.16.24.31.24h0l-.53-1.97Zm-.53-.55l.16.28c.06.1.1.2.13.31l.12.44c-.23,0-.41-.19-.41-.42v-.6Zm-.51-1.06s.05-.04.07-.06c.03.02.05.04.07.06.08.08.13.18.13.3,0,.14-.06.27-.15.37l-.05.05-.05-.05c-.1-.1-.15-.23-.15-.37,0-.12.05-.23.13-.3Zm-.66,1.65c.03-.11.08-.21.13-.31l.16-.28v.6c0,.23-.18.42-.41.42l.12-.44Zm1.58,1.21l-.65-.65c-.05-.05-.12-.08-.2-.08s-.15.03-.2.08l-.65.65c-.07.07-.15.11-.24.12l.24-.89.14.03c.26.06.51-.14.51-.42v-.81h.4v.81c0,.27.25.47.51.42l.14-.03.24.89c-.09-.01-.17-.05-.24-.12Z"/>
        <path class="cls-1" d="m7.01,10.79h-.71c-.3-.2-.65-.33-1.04-.33s-.74.12-1.04.33h-.71c.42-.49,1.05-.81,1.75-.81s1.33.31,1.75.81Z"/>
      </g>
    </g>
  </g>
</svg>